<?xml version="1.0" encoding="utf-8"?>
<!-- Generator: Adobe Illustrator 26.3.1, SVG Export Plug-In . SVG Version: 6.00 Build 0)  -->
<svg version="1.1" id="Layer_1" xmlns="http://www.w3.org/2000/svg" xmlns:xlink="http://www.w3.org/1999/xlink" x="0px" y="0px"
	 viewBox="0 0 200 200" style="enable-background:new 0 0 200 200;" xml:space="preserve">
<style type="text/css">
	.st0{fill:#4C7867;}
</style>
<g>
	<path class="st0" d="M-232.3,175.8c0-50.5,0-101,0-151.5c0.1-0.6,0.3-1.1,0.4-1.7c2.3-12.9,13.5-22.5,26.6-22.5
		c48.7,0,97.4-0.1,146.1,0c14.8,0,26.9,12.1,26.9,26.9c0.1,48.7,0.1,97.5,0,146.2c0,11.9-8.1,22.4-19.5,25.7
		c-1.6,0.5-3.1,0.8-4.7,1.2c-50.5,0-101.1,0-151.6,0c-0.4-0.1-0.7-0.3-1.1-0.3c-11.4-2.1-18.7-8.8-22.1-19.7
		C-231.7,178.6-232,177.2-232.3,175.8z M-125.7,88.4c0-1.7,0-3.5,0-5.2c-0.1-3-1.5-4.4-4.5-4.4c-5.8,0-11.6,0-17.4,0
		c-3.2,0-4.6,1.4-4.6,4.7c0,24.8,0,49.6,0,74.4c0,3.2,1.4,4.6,4.7,4.6c5.4,0,10.8,0,16.2,0c4.4,0,5.5-1.1,5.5-5.6
		c0-12.5,0-25,0-37.5c0-4.8,1-9.3,3.7-13.3c3.2-4.9,7.9-6.5,13.6-5.7c5.1,0.7,8.6,3.7,9.8,8.6c1,4.1,1.5,8.3,1.5,12.5
		c0.2,12,0,24.1,0,36.1c0,3.5,1.3,4.9,4.8,4.9c5.8,0,11.6,0,17.4,0c3.5,0,4.9-1.4,4.9-4.8c0-13.7,0.2-27.3-0.1-41
		c-0.1-5.8-0.7-11.6-1.9-17.2c-2.2-10.2-7.9-17.8-18.5-20.6c-3.1-0.8-6.4-1.2-9.6-1.3C-110.3,77.4-119.2,79.7-125.7,88.4z
		 M-190.5,120.5c0,12.4,0,24.7,0,37.1c0,3.3,1.6,4.9,4.9,4.9c5.5,0,10.9,0,16.4,0c3.5,0,5.1-1.5,5.1-5c0-24.6,0-49.2,0-73.8
		c0-3.5-1.5-5-5-5c-5.4,0-10.8,0-16.2,0c-3.7,0-5.2,1.5-5.2,5.2C-190.5,96.2-190.5,108.3-190.5,120.5z M-160.3,54.6
		c0.1-9.3-7.4-17-16.7-17.1c-9.5-0.1-17.3,7.4-17.4,16.9c-0.1,9.4,7.5,17.1,16.8,17.2C-167.9,71.6-160.4,64.2-160.3,54.6z"/>
</g>
<g>
	<path class="st0" d="M0,173.8c0-49.2,0-98.4,0-147.6c0.1-0.4,0.3-0.8,0.4-1.3C2.8,10.2,14.7,0,29.7,0c46.9,0,93.7,0,140.6,0.1
		c3.3,0,6.7,0.5,9.8,1.6c12.4,4.1,20,15.1,20,28.5c0,46.6,0,93.2,0,139.8c0,0.7,0,1.3,0,2c-0.8,11.4-6.2,19.9-16.4,25
		c-3,1.5-6.5,2.1-9.8,3.1c-16.8,0-33.6,0-50.4,0c0-23.5,0-47.1,0-70.7c10,0,19.8,0,29.7,0c2-11.7,3.9-23.3,5.9-35.2
		c-12,0-23.7,0-35.5,0c0-8,0-15.8,0-23.8c11.8,0,23.6,0,35.3,0c0-11.8,0-23.4,0-35.1c-11.7,0-23.2,0-34.7,0
		C103.7,35.2,88.3,50.6,88.3,71c0,7,0,13.9,0,20.9c0,0.7,0,1.4,0,2.3c-7.9,0-15.6,0-23.3,0c0,11.8,0,23.3,0,35.1
		c7.8,0,15.5,0,23.3,0c0,23.7,0,47.2,0,70.7c-20.7,0-41.4,0-62.1,0c-0.4-0.1-0.7-0.3-1.1-0.3c-10.4-1.7-17.9-7.3-22.3-16.8
		C1.4,180,0.9,176.9,0,173.8z"/>
</g>
</svg>
