<?xml version="1.0" encoding="utf-8"?>
<!-- Generator: Adobe Illustrator 26.0.3, SVG Export Plug-In . SVG Version: 6.00 Build 0)  -->
<svg version="1.1" id="Layer_1" xmlns="http://www.w3.org/2000/svg" xmlns:xlink="http://www.w3.org/1999/xlink" x="0px" y="0px"
	 viewBox="0 0 16 16" style="enable-background:new 0 0 16 16;" xml:space="preserve">
<style type="text/css">
	.st0{fill:#8FC5B0;}
</style>
<g>
	<polygon class="st0" points="10.8,7.2 7.6,7.2 7.6,4.5 6,4.5 6,10.1 2.8,10.1 2.8,4.5 1.2,4.5 1.2,11.4 6,11.4 6.3,11.4 7.6,11.4 
		7.6,8.6 10.8,8.6 10.8,11.4 12.4,11.4 12.4,4.5 10.8,4.5 	"/>
	<path class="st0" d="M14.5,9.9c-0.2-0.2-0.4-0.3-0.7-0.3c-0.3,0-0.5,0.1-0.7,0.3c-0.2,0.2-0.3,0.4-0.3,0.7s0.1,0.5,0.3,0.7
		c0.2,0.2,0.4,0.3,0.7,0.3c0.3,0,0.5-0.1,0.7-0.3c0.2-0.2,0.3-0.4,0.3-0.7S14.7,10,14.5,9.9z"/>
</g>
</svg>
