<?xml version="1.0" encoding="utf-8"?>
<!-- Generator: Adobe Illustrator 26.3.1, SVG Export Plug-In . SVG Version: 6.00 Build 0)  -->
<svg version="1.1" id="Layer_1" xmlns="http://www.w3.org/2000/svg" xmlns:xlink="http://www.w3.org/1999/xlink" x="0px" y="0px"
	 viewBox="0 0 71.4 11.5" style="enable-background:new 0 0 71.4 11.5;" xml:space="preserve">
<style type="text/css">
	.st0{fill:#4C7867;}
	.st1{fill:#434343;}
</style>
<g>
	<path class="st0" d="M1.9,7h3v1.6H0V0.4h1.9V7z"/>
	<path class="st0" d="M5.7,1.2c0-0.6,0.5-1,1.1-1c0.6,0,1.1,0.4,1.1,1c0,0.6-0.5,1-1.1,1C6.2,2.2,5.7,1.7,5.7,1.2z M5.9,8.6V3h1.8
		v5.6H5.9z"/>
	<path class="st0" d="M14.8,5.6v3H13V5.7c0-0.9-0.5-1.2-1-1.2c-0.5,0-1.1,0.3-1.1,1.2v2.9H9.2V3h1.8v1c0.2-0.8,1.1-1.1,1.6-1.1
		C14,2.9,14.8,3.9,14.8,5.6z"/>
	<path class="st0" d="M21.8,6.4h-4.1c0.2,0.5,0.6,0.9,1.3,0.9c0.5,0,1.1-0.2,1.4-0.6l0.9,1.2c-0.6,0.6-1.5,1-2.4,1
		c-1.8,0-3-1.2-3-2.9c0-1.8,1.4-3,3-3c1.6,0,3,1.1,3,2.8C21.8,5.9,21.8,6.1,21.8,6.4z M20.1,5.3c0-0.6-0.5-0.9-1.2-0.9
		c-0.5,0-1,0.3-1.2,0.9H20.1z"/>
	<path class="st1" d="M28.2,5.4v3.3h-0.8V5.4c0-1.1-0.7-1.8-1.6-1.8S24,4.2,24,5.5v3.1h-0.8V0H24v4.1c0.3-0.8,1.2-1.2,1.9-1.2
		C27.2,2.9,28.2,3.8,28.2,5.4z"/>
	<path class="st1" d="M35.2,6.2h-4.8c0.1,1.2,1,1.9,2.1,1.9c0.8,0,1.5-0.4,1.8-1L35,7.4c-0.5,0.9-1.5,1.4-2.5,1.4
		c-1.6,0-2.8-1.2-2.8-3s1.3-2.9,2.8-2.9c1.6,0,2.8,1.2,2.8,2.9C35.3,5.9,35.2,6.1,35.2,6.2z M34.5,5.5c-0.1-1.2-0.9-1.9-2-1.9
		c-1.1,0-1.9,0.7-2.1,1.9H34.5z"/>
	<path class="st1" d="M36.6,1c0-0.3,0.3-0.6,0.6-0.6c0.3,0,0.6,0.2,0.6,0.6c0,0.3-0.3,0.5-0.6,0.5C36.8,1.5,36.6,1.3,36.6,1z
		 M36.8,8.6V3h0.8v5.6H36.8z"/>
	<path class="st1" d="M44.1,3h0.8v4.8c0,2.7-1.2,3.6-3,3.6c-0.9,0-1.9-0.5-2.4-1.4l0.6-0.4c0.4,0.7,1.1,1,1.8,1
		c1.4,0,2.3-0.7,2.3-2.9V7.6c-0.4,0.8-1.3,1.2-2.2,1.2c-1.6,0-2.8-1.2-2.8-3s1.3-2.9,2.8-2.9c0.9,0,1.8,0.5,2.2,1.2V3z M44.1,5.9
		c0-1.4-1.1-2.2-2.2-2.2c-1.2,0-2.1,1-2.1,2.2c0,1.2,1,2.2,2.1,2.2C43.1,8.1,44.1,7.2,44.1,5.9z"/>
	<path class="st1" d="M51.8,5.4v3.3H51V5.4c0-1.1-0.7-1.8-1.6-1.8s-1.8,0.5-1.9,1.9v3.1h-0.8V0h0.8v4.1c0.3-0.8,1.2-1.2,1.9-1.2
		C50.9,2.9,51.8,3.8,51.8,5.4z"/>
	<path class="st1" d="M56,3v0.7h-1.3v4.9H54V3.7h-1V3h1V0.9h0.8V3H56z"/>
	<path class="st1" d="M56.7,8.2c0-0.3,0.3-0.6,0.6-0.6c0.3,0,0.6,0.2,0.6,0.6c0,0.3-0.3,0.6-0.6,0.6C57,8.8,56.7,8.5,56.7,8.2z"/>
	<path class="st1" d="M64.1,0h0.8v8.6h-0.8V7.6c-0.4,0.8-1.3,1.2-2.2,1.2c-1.6,0-2.8-1.2-2.8-3s1.3-2.9,2.8-2.9
		c0.9,0,1.8,0.5,2.2,1.2V0z M64.1,5.9c0-1.4-1.1-2.2-2.2-2.2c-1.2,0-2.1,1-2.1,2.2c0,1.2,1,2.2,2.1,2.2C63.1,8.1,64.1,7.2,64.1,5.9z
		"/>
	<path class="st1" d="M71.4,8.6h-1l-2.8-2.9v2.9h-0.8V0h0.8v5.2L69.7,3h1.1l-2.4,2.4L71.4,8.6z"/>
</g>
</svg>
