<?xml version="1.0" encoding="utf-8"?>
<!-- Generator: Adobe Illustrator 26.3.1, SVG Export Plug-In . SVG Version: 6.00 Build 0)  -->
<svg version="1.1" id="Layer_1" xmlns="http://www.w3.org/2000/svg" xmlns:xlink="http://www.w3.org/1999/xlink" x="0px" y="0px"
	 viewBox="0 0 200 200" style="enable-background:new 0 0 200 200;" xml:space="preserve">
<style type="text/css">
	.st0{fill:#4C7867;}
</style>
<g>
	<path class="st0" d="M0,175.8c0-50.5,0-101,0-151.5c0.1-0.6,0.3-1.1,0.4-1.7C2.6,9.7,13.9,0.1,27,0C75.7,0,124.4,0,173.1,0
		c14.8,0,26.9,12.1,26.9,26.9c0.1,48.7,0.1,97.5,0,146.2c0,11.9-8.1,22.4-19.5,25.7c-1.6,0.5-3.1,0.8-4.7,1.2
		c-50.5,0-101.1,0-151.6,0c-0.4-0.1-0.7-0.3-1.1-0.3c-11.4-2.1-18.7-8.8-22.1-19.7C0.5,178.6,0.3,177.2,0,175.8z M106.5,88.4
		c0-1.7,0-3.5,0-5.2c-0.1-3-1.5-4.4-4.5-4.4c-5.8,0-11.6,0-17.4,0c-3.2,0-4.6,1.4-4.6,4.7c0,24.8,0,49.6,0,74.4
		c0,3.2,1.4,4.6,4.7,4.6c5.4,0,10.8,0,16.2,0c4.4,0,5.5-1.1,5.5-5.6c0-12.5,0-25,0-37.5c0-4.8,1-9.3,3.7-13.3
		c3.2-4.9,7.9-6.5,13.6-5.7c5.1,0.7,8.6,3.7,9.8,8.6c1,4.1,1.5,8.3,1.5,12.5c0.2,12,0,24.1,0,36.1c0,3.5,1.3,4.9,4.8,4.9
		c5.8,0,11.6,0,17.4,0c3.5,0,4.9-1.4,4.9-4.8c0-13.7,0.2-27.3-0.1-41c-0.1-5.8-0.7-11.6-1.9-17.2c-2.2-10.2-7.9-17.8-18.5-20.6
		c-3.1-0.8-6.4-1.2-9.6-1.3C122,77.4,113,79.7,106.5,88.4z M41.8,120.5c0,12.4,0,24.7,0,37.1c0,3.3,1.6,4.9,4.9,4.9
		c5.5,0,10.9,0,16.4,0c3.5,0,5.1-1.5,5.1-5c0-24.6,0-49.2,0-73.8c0-3.5-1.5-5-5-5c-5.4,0-10.8,0-16.2,0c-3.7,0-5.2,1.5-5.2,5.2
		C41.8,96.2,41.8,108.3,41.8,120.5z M72,54.6c0.1-9.3-7.4-17-16.7-17.1C45.8,37.4,38,45,37.9,54.4c-0.1,9.4,7.5,17.1,16.8,17.2
		C64.3,71.6,71.9,64.2,72,54.6z"/>
</g>
</svg>
